<svg width="202" height="52" viewBox="0 0 202 52" fill="none" xmlns="http://www.w3.org/2000/svg">
<rect width="202" height="52" rx="26" fill="#231A36"/>
<path d="M36.2644 31H37.9104V26.8718H40.1476C40.1849 26.8718 40.2168 26.8718 40.2541 26.8718L42.47 31H44.345L41.9267 26.5842C43.2637 26.0888 43.9296 24.9755 43.9296 23.5107C43.9296 21.5025 42.6831 20.0909 40.1529 20.0909H36.2644V31ZM37.9104 25.4549V21.5025H39.9771C41.6018 21.5025 42.2729 22.2749 42.2729 23.5107C42.2729 24.7411 41.6018 25.4549 39.9984 25.4549H37.9104ZM49.2283 31.1651C51.0127 31.1651 52.2752 30.2862 52.6374 28.9545L51.1299 28.6829C50.8423 29.4553 50.1498 29.8494 49.2443 29.8494C47.8806 29.8494 46.9644 28.9652 46.9218 27.3885H52.7386V26.8239C52.7386 23.8675 50.9701 22.7116 49.1164 22.7116C46.8366 22.7116 45.3345 24.4482 45.3345 26.9624C45.3345 29.5032 46.8153 31.1651 49.2283 31.1651ZM46.9272 26.1953C46.9911 25.0341 47.8327 24.0273 49.1271 24.0273C50.3629 24.0273 51.1725 24.9435 51.1779 26.1953H46.9272ZM61.6222 34.0682V22.8182H60.0668V24.1445H59.9336C59.6513 23.6385 59.1027 22.7116 57.5846 22.7116C55.6084 22.7116 54.1488 24.2724 54.1488 26.9251C54.1488 29.5724 55.587 31.1598 57.5686 31.1598C59.0601 31.1598 59.646 30.2489 59.9336 29.7269H60.0295V34.0682H61.6222ZM60.0615 26.9091C60.0615 28.6296 59.2944 29.8015 57.9255 29.8015C56.5032 29.8015 55.7575 28.5497 55.7575 26.9091C55.7575 25.2844 56.4819 24.0646 57.9255 24.0646C59.3157 24.0646 60.0615 25.1992 60.0615 26.9091ZM68.9464 27.6069C68.9517 28.9972 67.9184 29.6577 67.0235 29.6577C66.038 29.6577 65.3562 28.9439 65.3562 27.8306V22.8182H63.7635V28.0224C63.7635 30.0518 64.8768 31.1065 66.4482 31.1065C67.6787 31.1065 68.515 30.4567 68.8932 29.5831H68.9784V31H70.5444V22.8182H68.9464V27.6069ZM76.2107 31.1651C77.9952 31.1651 79.2576 30.2862 79.6198 28.9545L78.1123 28.6829C77.8247 29.4553 77.1322 29.8494 76.2267 29.8494C74.8631 29.8494 73.9469 28.9652 73.9043 27.3885H79.721V26.8239C79.721 23.8675 77.9525 22.7116 76.0989 22.7116C73.819 22.7116 72.3169 24.4482 72.3169 26.9624C72.3169 29.5032 73.7977 31.1651 76.2107 31.1651ZM73.9096 26.1953C73.9735 25.0341 74.8151 24.0273 76.1095 24.0273C77.3453 24.0273 78.155 24.9435 78.1603 26.1953H73.9096ZM87.6192 24.8157C87.2889 23.5426 86.2928 22.7116 84.5244 22.7116C82.676 22.7116 81.3656 23.6864 81.3656 25.1353C81.3656 26.2965 82.0688 27.0689 83.6028 27.4098L84.9878 27.7134C85.7761 27.8892 86.1437 28.2408 86.1437 28.7521C86.1437 29.386 85.4672 29.8814 84.4232 29.8814C83.4697 29.8814 82.8571 29.4712 82.6653 28.6669L81.1259 28.9013C81.3923 30.3501 82.5961 31.1651 84.4338 31.1651C86.41 31.1651 87.779 30.1158 87.779 28.6349C87.779 27.479 87.0439 26.7653 85.5418 26.419L84.2421 26.1207C83.3418 25.9077 82.953 25.604 82.9583 25.0501C82.953 24.4215 83.6348 23.9741 84.5403 23.9741C85.5311 23.9741 85.9892 24.5227 86.1756 25.0714L87.6192 24.8157ZM93.3494 22.8182H91.6715V20.858H90.0788V22.8182H88.8803V24.0966H90.0788V28.9279C90.0735 30.4141 91.2081 31.1332 92.4652 31.1065C92.9712 31.1012 93.3121 31.0053 93.4985 30.9361L93.2109 29.6204C93.1044 29.6417 92.9073 29.6896 92.6516 29.6896C92.1349 29.6896 91.6715 29.5192 91.6715 28.5977V24.0966H93.3494V22.8182ZM102.74 31C106.064 31 107.987 28.9386 107.987 25.5295C107.987 22.1364 106.064 20.0909 102.852 20.0909H99.2088V31H102.74ZM100.855 29.5618V21.5291H102.751C105.137 21.5291 106.368 22.9567 106.368 25.5295C106.368 28.1129 105.137 29.5618 102.65 29.5618H100.855ZM113.432 31.1651C115.217 31.1651 116.479 30.2862 116.841 28.9545L115.334 28.6829C115.046 29.4553 114.354 29.8494 113.448 29.8494C112.085 29.8494 111.169 28.9652 111.126 27.3885H116.943V26.8239C116.943 23.8675 115.174 22.7116 113.321 22.7116C111.041 22.7116 109.539 24.4482 109.539 26.9624C109.539 29.5032 111.019 31.1651 113.432 31.1651ZM111.131 26.1953C111.195 25.0341 112.037 24.0273 113.331 24.0273C114.567 24.0273 115.377 24.9435 115.382 26.1953H111.131ZM118.71 31H120.303V25.9556C120.303 24.853 121.075 24.0859 121.98 24.0859C122.865 24.0859 123.477 24.6719 123.477 25.5614V31H125.065V25.7852C125.065 24.7997 125.667 24.0859 126.705 24.0859C127.547 24.0859 128.239 24.5547 128.239 25.6626V31H129.832V25.5135C129.832 23.6438 128.788 22.7116 127.307 22.7116C126.13 22.7116 125.246 23.2763 124.852 24.1499H124.766C124.409 23.255 123.658 22.7116 122.566 22.7116C121.485 22.7116 120.681 23.2496 120.34 24.1499H120.239V22.8182H118.71V31ZM135.413 31.1651C137.72 31.1651 139.227 29.4766 139.227 26.9464C139.227 24.4002 137.72 22.7116 135.413 22.7116C133.107 22.7116 131.599 24.4002 131.599 26.9464C131.599 29.4766 133.107 31.1651 135.413 31.1651ZM135.418 29.8281C133.911 29.8281 133.208 28.5124 133.208 26.9411C133.208 25.375 133.911 24.0433 135.418 24.0433C136.915 24.0433 137.618 25.375 137.618 26.9411C137.618 28.5124 136.915 29.8281 135.418 29.8281Z" fill="#FFFAF9"/>
<path fill-rule="evenodd" clip-rule="evenodd" d="M170.75 26C170.75 27.7902 170.039 29.5071 168.773 30.773C167.507 32.0388 165.79 32.75 164 32.75C162.21 32.75 160.493 32.0388 159.227 30.773C157.961 29.5071 157.25 27.7902 157.25 26C157.25 24.2098 157.961 22.4929 159.227 21.227C160.493 19.9612 162.21 19.25 164 19.25C165.79 19.25 167.507 19.9612 168.773 21.227C170.039 22.4929 170.75 24.2098 170.75 26ZM172 26C172 28.1217 171.157 30.1566 169.657 31.6569C168.157 33.1571 166.122 34 164 34C161.878 34 159.843 33.1571 158.343 31.6569C156.843 30.1566 156 28.1217 156 26C156 23.8783 156.843 21.8434 158.343 20.3431C159.843 18.8429 161.878 18 164 18C166.122 18 168.157 18.8429 169.657 20.3431C171.157 21.8434 172 23.8783 172 26ZM163.47 23.53L165.19 25.25H160V26.75H165.19L163.47 28.47L164.53 29.53L167.53 26.53C167.67 26.3894 167.749 26.1988 167.749 26C167.749 25.8012 167.67 25.6106 167.53 25.47L164.53 22.47L163.47 23.53Z" fill="white"/>
</svg>
