<svg width="379" height="407" viewBox="0 0 379 407" fill="none" xmlns="http://www.w3.org/2000/svg">
<g filter="url(#filter0_d)">
<rect x="63" y="25" width="268.72" height="296.928" rx="8" fill="white"/>
</g>
<path d="M116.796 68.4335H123.388V66.5776H119.081V64.6341H123.051V62.7737H119.081V60.8347H123.388V58.9789H116.796V68.4335ZM126.818 68.5535C127.806 68.5535 128.489 68.1703 128.877 67.4455H128.932V68.4335H131.056V63.6139C131.056 62.1135 129.722 61.2502 127.917 61.2502C126.01 61.2502 124.93 62.2105 124.75 63.5031L126.832 63.5769C126.929 63.1245 127.303 62.8475 127.898 62.8475C128.452 62.8475 128.803 63.1153 128.803 63.5908V63.6139C128.803 64.0478 128.332 64.1401 127.123 64.2463C125.687 64.3664 124.487 64.8972 124.487 66.4669C124.487 67.8703 125.461 68.5535 126.818 68.5535ZM127.515 67.0762C126.993 67.0762 126.624 66.8269 126.624 66.3561C126.624 65.899 126.984 65.622 127.626 65.5251C128.046 65.4651 128.563 65.3727 128.817 65.2389V65.9129C128.817 66.6053 128.235 67.0762 127.515 67.0762ZM132.436 68.4335H134.694V64.5833C134.694 63.7385 135.294 63.1707 136.102 63.1707C136.369 63.1707 136.771 63.2169 136.988 63.2907V61.3287C136.799 61.2779 136.563 61.2456 136.356 61.2456C135.58 61.2456 134.961 61.698 134.703 62.6352H134.629V61.3426H132.436V68.4335ZM140.165 64.3894C140.17 63.5816 140.641 63.1014 141.356 63.1014C142.072 63.1014 142.497 63.5723 142.492 64.3571V68.4335H144.75V63.9139C144.754 62.3166 143.78 61.2502 142.289 61.2502C141.241 61.2502 140.447 61.7811 140.133 62.6444H140.055V61.3426H137.908V68.4335H140.165V64.3894ZM146.147 68.4335H148.405V61.3426H146.147V68.4335ZM147.278 60.5162C147.92 60.5162 148.437 60.0315 148.437 59.436C148.437 58.8404 147.92 58.3603 147.278 58.3603C146.641 58.3603 146.119 58.8404 146.119 59.436C146.119 60.0315 146.641 60.5162 147.278 60.5162ZM152.099 64.3894C152.104 63.5816 152.574 63.1014 153.29 63.1014C154.006 63.1014 154.43 63.5723 154.426 64.3571V68.4335H156.683V63.9139C156.688 62.3166 155.714 61.2502 154.223 61.2502C153.175 61.2502 152.381 61.7811 152.067 62.6444H151.988V61.3426H149.842V68.4335H152.099V64.3894ZM161.386 71.2403C163.524 71.2403 164.982 70.2662 164.982 68.4612V61.3426H162.734V62.5567H162.67C162.397 61.9058 161.779 61.2502 160.661 61.2502C159.18 61.2502 157.836 62.3905 157.836 64.8788C157.836 67.2886 159.115 68.3365 160.671 68.3365C161.714 68.3365 162.411 67.8518 162.679 67.1963H162.757V68.4427C162.757 69.3475 162.203 69.6753 161.446 69.6753C160.721 69.6753 160.287 69.3983 160.167 68.9598L158.03 69.0798C158.196 70.3216 159.364 71.2403 161.386 71.2403ZM161.455 66.6931C160.62 66.6931 160.154 66.0144 160.154 64.8788C160.154 63.7477 160.615 63.0137 161.455 63.0137C162.282 63.0137 162.762 63.7293 162.762 64.8788C162.762 66.0191 162.277 66.6931 161.455 66.6931ZM169.215 68.4335H173.457C175.548 68.4335 176.749 67.3163 176.749 65.7882C176.749 64.4218 175.756 63.5631 174.611 63.5123V63.42C175.65 63.203 176.379 62.4505 176.379 61.3703C176.379 59.9438 175.281 58.9789 173.157 58.9789H169.215V68.4335ZM171.5 66.5915V64.3387H172.954C173.826 64.3387 174.362 64.8003 174.362 65.5251C174.362 66.1945 173.9 66.5915 172.912 66.5915H171.5ZM171.5 62.866V60.7932H172.802C173.563 60.7932 174.048 61.1856 174.048 61.8134C174.048 62.4782 173.513 62.866 172.765 62.866H171.5ZM179.228 71.0926C180.853 71.0926 181.661 70.2708 182.053 69.1121L184.726 61.3472L182.348 61.3426L181.024 66.4022H180.95L179.643 61.3426H177.28L179.8 68.692L179.712 68.9044C179.495 69.4352 179.006 69.4445 178.341 69.2275L177.843 70.8664C178.184 71.0048 178.688 71.0926 179.228 71.0926ZM188.384 68.4335H190.67V65.4974H192.221C194.386 65.4974 195.739 64.214 195.739 62.252C195.739 60.3085 194.414 58.9789 192.29 58.9789H188.384V68.4335ZM190.67 63.697V60.8209H191.796C192.821 60.8209 193.37 61.3749 193.37 62.252C193.37 63.1245 192.821 63.697 191.796 63.697H190.67ZM199.122 58.9789H196.865V68.4335H199.122V58.9789ZM202.558 68.5535C203.546 68.5535 204.229 68.1703 204.617 67.4455H204.673V68.4335H206.796V63.6139C206.796 62.1135 205.462 61.2502 203.657 61.2502C201.75 61.2502 200.67 62.2105 200.49 63.5031L202.572 63.5769C202.669 63.1245 203.043 62.8475 203.638 62.8475C204.192 62.8475 204.543 63.1153 204.543 63.5908V63.6139C204.543 64.0478 204.072 64.1401 202.863 64.2463C201.427 64.3664 200.227 64.8972 200.227 66.4669C200.227 67.8703 201.201 68.5535 202.558 68.5535ZM203.255 67.0762C202.734 67.0762 202.364 66.8269 202.364 66.3561C202.364 65.899 202.724 65.622 203.366 65.5251C203.786 65.4651 204.303 65.3727 204.557 65.2389V65.9129C204.557 66.6053 203.975 67.0762 203.255 67.0762ZM212.179 61.3426H210.9V59.6437H208.643V61.3426H207.706V63.0045H208.643V66.453C208.629 67.8887 209.561 68.6089 211.154 68.535C211.699 68.5073 212.091 68.3965 212.308 68.3319L211.967 66.7023C211.87 66.7254 211.643 66.7715 211.473 66.7715C211.108 66.7715 210.9 66.6238 210.9 66.2037V63.0045H212.179V61.3426ZM217.361 61.3426H216.008V60.9455C216.008 60.5393 216.175 60.29 216.701 60.29C216.913 60.29 217.172 60.3362 217.338 60.387L217.698 58.7343C217.43 58.6604 216.816 58.5357 216.193 58.5357C214.748 58.5357 213.756 59.339 213.756 60.9825V61.3426H212.8V63.0045H213.756V68.4335H216.008V63.0045H217.361V61.3426ZM221.516 68.5673C223.746 68.5673 225.098 67.0947 225.098 64.9111C225.098 62.7229 223.746 61.2502 221.516 61.2502C219.286 61.2502 217.933 62.7229 217.933 64.9111C217.933 67.0947 219.286 68.5673 221.516 68.5673ZM221.53 66.8639C220.694 66.8639 220.232 66.0698 220.232 64.8972C220.232 63.72 220.694 62.9214 221.53 62.9214C222.338 62.9214 222.799 63.72 222.799 64.8972C222.799 66.0698 222.338 66.8639 221.53 66.8639ZM226.255 68.4335H228.512V64.5833C228.512 63.7385 229.112 63.1707 229.92 63.1707C230.188 63.1707 230.589 63.2169 230.806 63.2907V61.3287C230.617 61.2779 230.382 61.2456 230.174 61.2456C229.398 61.2456 228.78 61.698 228.521 62.6352H228.447V61.3426H226.255V68.4335ZM231.726 68.4335H233.984V64.2371C233.984 63.5354 234.395 63.0876 234.986 63.0876C235.572 63.0876 235.96 63.4985 235.96 64.154V68.4335H238.129V64.2002C238.129 63.5215 238.503 63.0876 239.127 63.0876C239.699 63.0876 240.105 63.4708 240.105 64.1771V68.4335H242.363V63.66C242.363 62.1597 241.439 61.2502 240.101 61.2502C239.053 61.2502 238.226 61.7996 237.963 62.6444H237.889C237.7 61.795 236.938 61.2502 235.955 61.2502C234.986 61.2502 234.247 61.7811 233.951 62.6444H233.873V61.3426H231.726V68.4335ZM246.245 60.8347H249.117V68.4335H251.369V60.8347H254.236V58.9789H246.245V60.8347ZM255.92 71.0926C257.545 71.0926 258.353 70.2708 258.745 69.1121L261.418 61.3472L259.041 61.3426L257.716 66.4022H257.642L256.336 61.3426H253.972L256.493 68.692L256.405 68.9044C256.188 69.4352 255.699 69.4445 255.034 69.2275L254.535 70.8664C254.877 71.0048 255.38 71.0926 255.92 71.0926ZM262.284 71.0926H264.541V67.284H264.588C264.874 67.9395 265.511 68.535 266.582 68.535C268.151 68.535 269.416 67.3071 269.416 64.8926C269.416 62.3905 268.078 61.2502 266.596 61.2502C265.474 61.2502 264.86 61.9058 264.588 62.5567H264.518V61.3426H262.284V71.0926ZM264.495 64.888C264.495 63.7293 264.975 63.0137 265.802 63.0137C266.637 63.0137 267.099 63.7477 267.099 64.888C267.099 66.0329 266.637 66.7762 265.802 66.7762C264.975 66.7762 264.495 66.0375 264.495 64.888ZM273.914 68.5673C275.774 68.5673 276.998 67.6671 277.256 66.273L275.184 66.2129C275.008 66.6838 274.546 66.9377 273.956 66.9377C273.088 66.9377 272.552 66.3607 272.552 65.4928V65.4328H277.279V64.8696C277.279 62.5336 275.858 61.2502 273.845 61.2502C271.703 61.2502 270.327 62.7183 270.327 64.9157C270.327 67.187 271.684 68.5673 273.914 68.5673ZM272.552 64.1217C272.584 63.4154 273.143 62.8798 273.891 62.8798C274.634 62.8798 275.17 63.3969 275.179 64.1217H272.552Z" fill="#7C89A9"/>
<path d="M114.228 288.282H112.47V295.555H114.228V288.282ZM117.168 292.444C117.171 291.822 117.533 291.453 118.084 291.453C118.634 291.453 118.961 291.815 118.957 292.419V295.555H120.694V292.078C120.697 290.849 119.948 290.029 118.801 290.029C117.995 290.029 117.384 290.438 117.143 291.102H117.082V290.1H115.431V295.555H117.168V292.444ZM126.631 291.766C126.539 290.686 125.654 290.029 124.177 290.029C122.7 290.029 121.759 290.672 121.766 291.766C121.759 292.604 122.295 293.143 123.385 293.346L124.337 293.527C124.788 293.616 124.994 293.758 125.001 293.999C124.994 294.273 124.689 294.454 124.245 294.454C123.751 294.454 123.417 294.241 123.343 293.843L121.628 293.886C121.752 294.965 122.679 295.658 124.238 295.658C125.697 295.658 126.759 294.93 126.766 293.808C126.759 293.012 126.233 292.54 125.147 292.33L124.096 292.131C123.634 292.039 123.485 291.876 123.488 291.666C123.485 291.389 123.808 291.219 124.209 291.219C124.667 291.219 124.987 291.464 125.037 291.808L126.631 291.766ZM130.8 290.1H129.816V288.793H128.08V290.1H127.359V291.379H128.08V294.031C128.069 295.136 128.786 295.69 130.011 295.633C130.43 295.612 130.732 295.526 130.899 295.477L130.636 294.223C130.562 294.241 130.388 294.276 130.256 294.276C129.976 294.276 129.816 294.163 129.816 293.839V291.379H130.8V290.1ZM133.323 295.647C134.083 295.647 134.609 295.352 134.907 294.795H134.95V295.555H136.583V291.847C136.583 290.693 135.557 290.029 134.169 290.029C132.702 290.029 131.871 290.768 131.733 291.762L133.334 291.819C133.409 291.471 133.696 291.258 134.154 291.258C134.581 291.258 134.85 291.464 134.85 291.83V291.847C134.85 292.181 134.488 292.252 133.558 292.334C132.453 292.426 131.53 292.835 131.53 294.042C131.53 295.121 132.279 295.647 133.323 295.647ZM133.86 294.511C133.458 294.511 133.174 294.319 133.174 293.957C133.174 293.605 133.451 293.392 133.945 293.317C134.268 293.271 134.666 293.2 134.861 293.097V293.616C134.861 294.148 134.414 294.511 133.86 294.511ZM140.288 297.714C141.932 297.714 143.054 296.964 143.054 295.576V290.1H141.325V291.034H141.275C141.065 290.533 140.59 290.029 139.73 290.029C138.59 290.029 137.557 290.906 137.557 292.82C137.557 294.674 138.541 295.48 139.737 295.48C140.54 295.48 141.076 295.107 141.282 294.603H141.342V295.562C141.342 296.258 140.916 296.51 140.334 296.51C139.776 296.51 139.443 296.297 139.35 295.96L137.706 296.052C137.834 297.007 138.732 297.714 140.288 297.714ZM140.341 294.216C139.698 294.216 139.34 293.694 139.34 292.82C139.34 291.95 139.695 291.386 140.341 291.386C140.977 291.386 141.346 291.936 141.346 292.82C141.346 293.697 140.973 294.216 140.341 294.216ZM144.261 295.555H145.998V292.593C145.998 291.943 146.459 291.506 147.081 291.506C147.287 291.506 147.596 291.542 147.763 291.599V290.089C147.617 290.05 147.436 290.026 147.276 290.026C146.679 290.026 146.204 290.374 146.005 291.094H145.948V290.1H144.261V295.555ZM149.903 295.647C150.663 295.647 151.188 295.352 151.487 294.795H151.529V295.555H153.163V291.847C153.163 290.693 152.136 290.029 150.748 290.029C149.281 290.029 148.45 290.768 148.312 291.762L149.913 291.819C149.988 291.471 150.276 291.258 150.734 291.258C151.16 291.258 151.43 291.464 151.43 291.83V291.847C151.43 292.181 151.067 292.252 150.137 292.334C149.033 292.426 148.109 292.835 148.109 294.042C148.109 295.121 148.859 295.647 149.903 295.647ZM150.439 294.511C150.038 294.511 149.754 294.319 149.754 293.957C149.754 293.605 150.031 293.392 150.524 293.317C150.847 293.271 151.245 293.2 151.44 293.097V293.616C151.44 294.148 150.993 294.511 150.439 294.511ZM154.324 295.555H156.061V292.327C156.061 291.787 156.377 291.442 156.832 291.442C157.283 291.442 157.581 291.759 157.581 292.263V295.555H159.25V292.298C159.25 291.776 159.538 291.442 160.017 291.442C160.457 291.442 160.77 291.737 160.77 292.281V295.555H162.506V291.883C162.506 290.729 161.796 290.029 160.766 290.029C159.96 290.029 159.324 290.452 159.122 291.102H159.065C158.92 290.448 158.334 290.029 157.577 290.029C156.832 290.029 156.263 290.438 156.036 291.102H155.976V290.1H154.324V295.555Z" fill="#7C89A9"/>
<path d="M192.309 295.555H190.065V288.282H192.409C193.114 288.282 193.718 288.428 194.22 288.719C194.722 289.008 195.106 289.423 195.374 289.965C195.642 290.505 195.775 291.151 195.775 291.904C195.775 292.662 195.64 293.314 195.37 293.861C195.101 294.405 194.708 294.824 194.191 295.118C193.675 295.409 193.048 295.555 192.309 295.555ZM190.946 294.773H192.253C193.155 294.773 193.825 294.518 194.263 294.006C194.703 293.493 194.923 292.792 194.923 291.904C194.923 291.023 194.708 290.33 194.277 289.823C193.846 289.317 193.204 289.063 192.352 289.063H190.946V294.773ZM197.239 295.555V290.1H198.049V290.924H198.105C198.205 290.654 198.385 290.435 198.645 290.267C198.906 290.099 199.199 290.015 199.526 290.015C199.587 290.015 199.664 290.016 199.757 290.018C199.849 290.021 199.919 290.024 199.966 290.029V290.881C199.938 290.874 199.873 290.864 199.771 290.849C199.671 290.833 199.566 290.825 199.455 290.825C199.057 290.825 198.728 290.945 198.468 291.187C198.207 291.428 198.077 291.734 198.077 292.103V295.555H197.239ZM201.06 295.555V290.1H201.898V295.555H201.06ZM201.486 289.191C201.322 289.191 201.182 289.135 201.063 289.024C200.947 288.913 200.889 288.779 200.889 288.623C200.889 288.467 200.947 288.333 201.063 288.222C201.182 288.11 201.322 288.055 201.486 288.055C201.649 288.055 201.789 288.11 201.905 288.222C202.023 288.333 202.082 288.467 202.082 288.623C202.082 288.779 202.023 288.913 201.905 289.024C201.789 289.135 201.649 289.191 201.486 289.191ZM203.646 295.555V288.282H204.484V290.967H204.555C204.617 290.872 204.702 290.751 204.811 290.604C204.922 290.455 205.081 290.323 205.287 290.207C205.495 290.088 205.777 290.029 206.132 290.029C206.591 290.029 206.996 290.144 207.347 290.374C207.697 290.603 207.97 290.929 208.167 291.35C208.363 291.772 208.462 292.269 208.462 292.842C208.462 293.419 208.363 293.92 208.167 294.344C207.97 294.765 207.698 295.092 207.35 295.324C207.002 295.554 206.601 295.668 206.146 295.668C205.796 295.668 205.515 295.61 205.305 295.494C205.094 295.376 204.932 295.242 204.818 295.093C204.705 294.942 204.617 294.816 204.555 294.717H204.456V295.555H203.646ZM204.47 292.827C204.47 293.445 204.604 293.948 204.871 294.337C205.141 294.723 205.528 294.915 206.033 294.915C206.383 294.915 206.675 294.823 206.91 294.638C207.147 294.451 207.324 294.201 207.442 293.886C207.563 293.568 207.624 293.216 207.624 292.827C207.624 292.444 207.564 292.098 207.446 291.79C207.33 291.48 207.154 291.235 206.917 291.055C206.683 290.873 206.388 290.782 206.033 290.782C205.521 290.782 205.133 290.97 204.868 291.347C204.603 291.723 204.47 292.217 204.47 292.827ZM209.957 295.555V288.282H210.795V290.967H210.866C210.928 290.872 211.013 290.751 211.122 290.604C211.233 290.455 211.392 290.323 211.598 290.207C211.806 290.088 212.088 290.029 212.443 290.029C212.902 290.029 213.307 290.144 213.658 290.374C214.008 290.603 214.281 290.929 214.478 291.35C214.674 291.772 214.773 292.269 214.773 292.842C214.773 293.419 214.674 293.92 214.478 294.344C214.281 294.765 214.009 295.092 213.661 295.324C213.313 295.554 212.912 295.668 212.457 295.668C212.107 295.668 211.826 295.61 211.616 295.494C211.405 295.376 211.243 295.242 211.129 295.093C211.015 294.942 210.928 294.816 210.866 294.717H210.767V295.555H209.957ZM210.781 292.827C210.781 293.445 210.915 293.948 211.182 294.337C211.452 294.723 211.839 294.915 212.344 294.915C212.694 294.915 212.986 294.823 213.221 294.638C213.457 294.451 213.635 294.201 213.753 293.886C213.874 293.568 213.935 293.216 213.935 292.827C213.935 292.444 213.875 292.098 213.757 291.79C213.641 291.48 213.465 291.235 213.228 291.055C212.993 290.873 212.699 290.782 212.344 290.782C211.832 290.782 211.444 290.97 211.179 291.347C210.914 291.723 210.781 292.217 210.781 292.827ZM216.993 288.282V295.555H216.155V288.282H216.993ZM220.915 295.668C220.389 295.668 219.936 295.552 219.554 295.32C219.176 295.086 218.883 294.759 218.677 294.34C218.474 293.919 218.372 293.429 218.372 292.87C218.372 292.311 218.474 291.819 218.677 291.393C218.883 290.964 219.17 290.63 219.537 290.391C219.906 290.15 220.337 290.029 220.829 290.029C221.113 290.029 221.394 290.076 221.671 290.171C221.948 290.266 222.2 290.42 222.427 290.633C222.655 290.844 222.836 291.123 222.971 291.471C223.106 291.819 223.173 292.247 223.173 292.756V293.112H219.214C219.232 293.694 219.397 294.14 219.707 294.45C220.02 294.76 220.422 294.915 220.915 294.915C221.244 294.915 221.527 294.844 221.763 294.702C222 294.56 222.172 294.347 222.278 294.063L223.088 294.29C222.96 294.702 222.704 295.035 222.321 295.288C221.937 295.542 221.469 295.668 220.915 295.668ZM219.214 292.387H222.321C222.321 291.925 222.186 291.543 221.916 291.24C221.646 290.935 221.284 290.782 220.829 290.782C220.51 290.782 220.233 290.857 219.998 291.006C219.764 291.155 219.579 291.353 219.444 291.599C219.309 291.843 219.232 292.105 219.214 292.387Z" fill="#7C89A9"/>
<path d="M257.832 289.063V288.282H263.287V289.063H261V295.555H260.119V289.063H257.832ZM265.243 295.555L263.581 290.1H264.462L265.641 294.276H265.698L266.863 290.1H267.757L268.908 294.262H268.965L270.144 290.1H271.025L269.363 295.555H268.539L267.346 291.364H267.26L266.067 295.555H265.243ZM272.232 295.555V290.1H273.071V295.555H272.232ZM272.659 289.191C272.495 289.191 272.354 289.135 272.236 289.024C272.12 288.913 272.062 288.779 272.062 288.623C272.062 288.467 272.12 288.333 272.236 288.222C272.354 288.11 272.495 288.055 272.659 288.055C272.822 288.055 272.962 288.11 273.078 288.222C273.196 288.333 273.255 288.467 273.255 288.623C273.255 288.779 273.196 288.913 273.078 289.024C272.962 289.135 272.822 289.191 272.659 289.191ZM277.078 290.1V290.81H275.913V293.992C275.913 294.229 275.947 294.406 276.016 294.525C276.087 294.641 276.177 294.719 276.286 294.759C276.397 294.797 276.514 294.816 276.637 294.816C276.73 294.816 276.805 294.811 276.865 294.802C276.924 294.79 276.971 294.781 277.007 294.773L277.177 295.526C277.12 295.548 277.041 295.569 276.939 295.59C276.837 295.614 276.708 295.626 276.552 295.626C276.315 295.626 276.083 295.575 275.856 295.473C275.631 295.371 275.444 295.216 275.295 295.008C275.148 294.799 275.075 294.537 275.075 294.219V290.81H274.251V290.1H275.075V288.793H275.913V290.1H277.078ZM280.81 290.1V290.81H279.646V293.992C279.646 294.229 279.68 294.406 279.749 294.525C279.82 294.641 279.91 294.719 280.019 294.759C280.13 294.797 280.247 294.816 280.37 294.816C280.462 294.816 280.538 294.811 280.597 294.802C280.657 294.79 280.704 294.781 280.739 294.773L280.91 295.526C280.853 295.548 280.774 295.569 280.672 295.59C280.57 295.614 280.441 295.626 280.285 295.626C280.048 295.626 279.816 295.575 279.589 295.473C279.364 295.371 279.177 295.216 279.028 295.008C278.881 294.799 278.808 294.537 278.808 294.219V290.81H277.984V290.1H278.808V288.793H279.646V290.1H280.81ZM284.399 295.668C283.874 295.668 283.421 295.552 283.039 295.32C282.661 295.086 282.368 294.759 282.162 294.34C281.959 293.919 281.857 293.429 281.857 292.87C281.857 292.311 281.959 291.819 282.162 291.393C282.368 290.964 282.655 290.63 283.022 290.391C283.391 290.15 283.822 290.029 284.314 290.029C284.598 290.029 284.879 290.076 285.156 290.171C285.433 290.266 285.685 290.42 285.912 290.633C286.14 290.844 286.321 291.123 286.456 291.471C286.591 291.819 286.658 292.247 286.658 292.756V293.112H282.698C282.717 293.694 282.882 294.14 283.192 294.45C283.505 294.76 283.907 294.915 284.399 294.915C284.729 294.915 285.011 294.844 285.248 294.702C285.485 294.56 285.657 294.347 285.763 294.063L286.573 294.29C286.445 294.702 286.189 295.035 285.806 295.288C285.422 295.542 284.953 295.668 284.399 295.668ZM282.698 292.387H285.806C285.806 291.925 285.671 291.543 285.401 291.24C285.131 290.935 284.769 290.782 284.314 290.782C283.995 290.782 283.718 290.857 283.483 291.006C283.249 291.155 283.064 291.353 282.929 291.599C282.794 291.843 282.717 292.105 282.698 292.387ZM288.033 295.555V290.1H288.843V290.924H288.899C288.996 290.654 289.175 290.435 289.436 290.267C289.696 290.099 289.991 290.015 290.32 290.015C290.471 290.015 290.604 290.033 290.718 290.068C290.831 290.104 290.931 290.152 291.016 290.214L290.732 290.924C290.673 290.893 290.603 290.87 290.522 290.853C290.444 290.834 290.353 290.825 290.249 290.825C289.851 290.825 289.522 290.946 289.262 291.19C289.001 291.432 288.871 291.736 288.871 292.103V295.555H288.033Z" fill="#7C89A9"/>
<circle cx="106.422" cy="291.865" r="3.34044" fill="#703FFB"/>
<circle cx="182.883" cy="291.865" r="3.34044" fill="#DE287A"/>
<circle cx="251.176" cy="291.865" r="3.34044" fill="#FCAE56"/>
<circle cx="199.216" cy="178.286" r="27.0947" stroke="#F0F3F9" stroke-width="5.93856"/>
<circle cx="199.217" cy="178.286" r="52.3336" stroke="#F0F3F9" stroke-width="5.93856"/>
<circle cx="199.218" cy="178.287" r="77.5725" stroke="#F0F3F9" stroke-width="5.93856"/>
<mask id="path-12-inside-1" fill="white">
<path d="M195.547 100.8C195.469 99.1627 196.734 97.767 198.372 97.7498C213.532 97.5905 228.452 101.714 241.401 109.676C255.194 118.156 266.111 130.597 272.728 145.375C279.344 160.153 281.353 176.582 278.492 192.518C275.631 208.455 268.033 223.159 256.69 234.713C245.346 246.267 230.784 254.134 214.903 257.287C199.021 260.44 182.558 258.733 167.661 252.389C152.764 246.046 140.125 235.359 131.393 221.724C123.195 208.923 118.798 194.082 118.678 178.921C118.665 177.283 120.038 175.993 121.676 176.04V176.04C123.314 176.088 124.597 177.455 124.615 179.093C124.766 193.061 128.836 206.727 136.391 218.523C144.479 231.153 156.187 241.053 169.986 246.929C183.786 252.805 199.036 254.386 213.747 251.465C228.458 248.545 241.947 241.258 252.455 230.555C262.962 219.853 270 206.232 272.65 191.47C275.3 176.707 273.44 161.489 267.311 147.8C261.182 134.111 251.07 122.587 238.293 114.732C226.36 107.395 212.621 103.577 198.653 103.683C197.014 103.695 195.624 102.437 195.547 100.8V100.8Z"/>
</mask>
<path d="M195.547 100.8C195.469 99.1627 196.734 97.767 198.372 97.7498C213.532 97.5905 228.452 101.714 241.401 109.676C255.194 118.156 266.111 130.597 272.728 145.375C279.344 160.153 281.353 176.582 278.492 192.518C275.631 208.455 268.033 223.159 256.69 234.713C245.346 246.267 230.784 254.134 214.903 257.287C199.021 260.44 182.558 258.733 167.661 252.389C152.764 246.046 140.125 235.359 131.393 221.724C123.195 208.923 118.798 194.082 118.678 178.921C118.665 177.283 120.038 175.993 121.676 176.04V176.04C123.314 176.088 124.597 177.455 124.615 179.093C124.766 193.061 128.836 206.727 136.391 218.523C144.479 231.153 156.187 241.053 169.986 246.929C183.786 252.805 199.036 254.386 213.747 251.465C228.458 248.545 241.947 241.258 252.455 230.555C262.962 219.853 270 206.232 272.65 191.47C275.3 176.707 273.44 161.489 267.311 147.8C261.182 134.111 251.07 122.587 238.293 114.732C226.36 107.395 212.621 103.577 198.653 103.683C197.014 103.695 195.624 102.437 195.547 100.8V100.8Z" stroke="#703FFB" stroke-width="11.8771" mask="url(#path-12-inside-1)"/>
<mask id="path-13-inside-2" fill="white">
<path d="M196.08 151.371C195.89 149.743 197.057 148.255 198.696 148.226C201.921 148.17 205.142 148.634 208.231 149.605C212.267 150.874 215.989 152.98 219.155 155.785C222.321 158.59 224.859 162.032 226.604 165.886C228.349 169.74 229.261 173.918 229.28 178.148C229.299 182.378 228.426 186.565 226.717 190.434C225.007 194.303 222.501 197.768 219.361 200.603C216.221 203.437 212.518 205.577 208.494 206.882C205.413 207.882 202.197 208.375 198.971 208.349C197.333 208.335 196.152 206.858 196.327 205.228V205.228C196.502 203.599 197.967 202.439 199.605 202.413C201.998 202.374 204.377 201.98 206.663 201.238C209.892 200.19 212.864 198.473 215.385 196.198C217.905 193.923 219.917 191.142 221.289 188.036C222.661 184.931 223.362 181.57 223.346 178.175C223.331 174.78 222.599 171.426 221.198 168.333C219.798 165.24 217.761 162.478 215.22 160.226C212.679 157.974 209.691 156.284 206.452 155.266C204.159 154.545 201.777 154.173 199.384 154.156C197.746 154.145 196.27 152.998 196.08 151.371V151.371Z"/>
</mask>
<path d="M196.08 151.371C195.89 149.743 197.057 148.255 198.696 148.226C201.921 148.17 205.142 148.634 208.231 149.605C212.267 150.874 215.989 152.98 219.155 155.785C222.321 158.59 224.859 162.032 226.604 165.886C228.349 169.74 229.261 173.918 229.28 178.148C229.299 182.378 228.426 186.565 226.717 190.434C225.007 194.303 222.501 197.768 219.361 200.603C216.221 203.437 212.518 205.577 208.494 206.882C205.413 207.882 202.197 208.375 198.971 208.349C197.333 208.335 196.152 206.858 196.327 205.228V205.228C196.502 203.599 197.967 202.439 199.605 202.413C201.998 202.374 204.377 201.98 206.663 201.238C209.892 200.19 212.864 198.473 215.385 196.198C217.905 193.923 219.917 191.142 221.289 188.036C222.661 184.931 223.362 181.57 223.346 178.175C223.331 174.78 222.599 171.426 221.198 168.333C219.798 165.24 217.761 162.478 215.22 160.226C212.679 157.974 209.691 156.284 206.452 155.266C204.159 154.545 201.777 154.173 199.384 154.156C197.746 154.145 196.27 152.998 196.08 151.371V151.371Z" stroke="#FCAE56" stroke-width="11.8771" mask="url(#path-13-inside-2)"/>
<mask id="path-14-inside-3" fill="white">
<path d="M195.656 126.073C195.544 124.437 196.78 123.013 198.419 122.989C206.847 122.867 215.205 124.674 222.849 128.287C231.389 132.323 238.753 138.48 244.239 146.17C249.724 153.86 253.149 162.826 254.186 172.215C255.222 181.604 253.837 191.102 250.162 199.804C246.487 208.505 240.644 216.12 233.191 221.923C225.737 227.726 216.922 231.523 207.585 232.952C198.248 234.382 188.7 233.395 179.852 230.088C171.933 227.127 164.81 222.395 159.021 216.269C157.895 215.077 158.055 213.198 159.305 212.138V212.138C160.555 211.078 162.421 211.239 163.555 212.423C168.683 217.78 174.961 221.922 181.931 224.528C189.829 227.48 198.352 228.36 206.687 227.085C215.022 225.809 222.891 222.419 229.544 217.239C236.197 212.059 241.413 205.262 244.694 197.494C247.974 189.726 249.211 181.248 248.285 172.867C247.36 164.486 244.303 156.482 239.406 149.617C234.509 142.753 227.936 137.257 220.313 133.654C213.585 130.474 206.238 128.862 198.823 128.921C197.184 128.934 195.767 127.708 195.656 126.073V126.073Z"/>
</mask>
<path d="M195.656 126.073C195.544 124.437 196.78 123.013 198.419 122.989C206.847 122.867 215.205 124.674 222.849 128.287C231.389 132.323 238.753 138.48 244.239 146.17C249.724 153.86 253.149 162.826 254.186 172.215C255.222 181.604 253.837 191.102 250.162 199.804C246.487 208.505 240.644 216.12 233.191 221.923C225.737 227.726 216.922 231.523 207.585 232.952C198.248 234.382 188.7 233.395 179.852 230.088C171.933 227.127 164.81 222.395 159.021 216.269C157.895 215.077 158.055 213.198 159.305 212.138V212.138C160.555 211.078 162.421 211.239 163.555 212.423C168.683 217.78 174.961 221.922 181.931 224.528C189.829 227.48 198.352 228.36 206.687 227.085C215.022 225.809 222.891 222.419 229.544 217.239C236.197 212.059 241.413 205.262 244.694 197.494C247.974 189.726 249.211 181.248 248.285 172.867C247.36 164.486 244.303 156.482 239.406 149.617C234.509 142.753 227.936 137.257 220.313 133.654C213.585 130.474 206.238 128.862 198.823 128.921C197.184 128.934 195.767 127.708 195.656 126.073V126.073Z" stroke="#DE287A" stroke-width="11.8771" mask="url(#path-14-inside-3)"/>
<g filter="url(#filter1_d)">
<rect x="83.043" y="128.924" width="74.232" height="34.1467" rx="4" fill="white"/>
</g>
<path d="M96.1374 151.619H97.1914L97.1964 150.48C99.3292 150.326 100.552 149.153 100.557 147.487C100.552 145.722 99.0955 144.917 97.5643 144.554L97.2362 144.469L97.256 141.631C98.0515 141.77 98.5636 142.247 98.6431 142.963H100.418C100.388 141.382 99.1452 140.229 97.266 140.05L97.271 138.891H96.217L96.212 140.05C94.3477 140.239 93.0053 141.382 93.0103 143.028C93.0103 144.489 94.0494 145.329 95.7248 145.762L96.1722 145.876L96.1523 148.884C95.2624 148.745 94.6211 148.238 94.5565 147.338H92.7418C92.8114 149.202 94.0941 150.311 96.1424 150.48L96.1374 151.619ZM97.2063 148.884L97.2262 146.155C98.131 146.418 98.7077 146.766 98.7127 147.472C98.7077 148.208 98.1161 148.735 97.2063 148.884ZM96.1822 144.201C95.4961 143.982 94.8697 143.619 94.8796 142.913C94.8846 142.272 95.3668 141.775 96.2021 141.631L96.1822 144.201ZM106.243 140.164H104.488L101.958 141.79V143.48L104.339 141.959H104.399V150.346H106.243V140.164ZM112.483 150.485C114.66 150.485 116.246 149.237 116.241 147.517C116.246 146.244 115.451 145.329 114.024 145.126V145.046C115.128 144.807 115.868 143.987 115.863 142.844C115.868 141.293 114.546 140.025 112.513 140.025C110.534 140.025 109.003 141.203 108.963 142.908H110.738C110.768 142.053 111.563 141.521 112.503 141.521C113.452 141.521 114.084 142.098 114.079 142.953C114.084 143.843 113.348 144.435 112.294 144.435H111.394V145.856H112.294C113.581 145.856 114.347 146.503 114.342 147.423C114.347 148.322 113.567 148.939 112.478 148.939C111.454 148.939 110.663 148.407 110.618 147.577H108.749C108.799 149.297 110.335 150.485 112.483 150.485ZM119.78 148.954H118.189L118.154 149.511C118.07 150.858 117.717 152.23 117.572 152.832H118.786C119.024 152.205 119.576 150.753 119.715 149.501L119.78 148.954ZM125.012 150.485C127.215 150.485 128.791 149.272 128.796 147.616C128.791 146.344 127.851 145.28 126.668 145.081V145.011C127.697 144.783 128.413 143.858 128.418 142.754C128.413 141.188 126.971 140.025 125.012 140.025C123.039 140.025 121.597 141.183 121.602 142.754C121.597 143.858 122.303 144.783 123.352 145.011V145.081C122.149 145.28 121.219 146.344 121.224 147.616C121.219 149.272 122.79 150.485 125.012 150.485ZM125.012 149.063C123.859 149.063 123.113 148.427 123.123 147.487C123.113 146.513 123.914 145.822 125.012 145.822C126.096 145.822 126.892 146.518 126.902 147.487C126.892 148.427 126.151 149.063 125.012 149.063ZM125.012 144.425C124.068 144.425 123.392 143.813 123.402 142.928C123.392 142.053 124.048 141.467 125.012 141.467C125.962 141.467 126.613 142.053 126.623 142.928C126.613 143.818 125.942 144.425 125.012 144.425ZM134.084 150.485C136.262 150.485 137.848 149.237 137.843 147.517C137.848 146.244 137.052 145.329 135.626 145.126V145.046C136.729 144.807 137.47 143.987 137.465 142.844C137.47 141.293 136.148 140.025 134.114 140.025C132.135 140.025 130.604 141.203 130.564 142.908H132.339C132.369 142.053 133.165 141.521 134.104 141.521C135.054 141.521 135.685 142.098 135.68 142.953C135.685 143.843 134.949 144.435 133.895 144.435H132.996V145.856H133.895C135.183 145.856 135.949 146.503 135.944 147.423C135.949 148.322 135.168 148.939 134.079 148.939C133.055 148.939 132.265 148.407 132.22 147.577H130.351C130.4 149.297 131.937 150.485 134.084 150.485ZM139.549 150.346H146.529V148.805H142.095V148.735L143.85 146.95C145.828 145.051 146.375 144.126 146.375 142.978C146.375 141.273 144.988 140.025 142.94 140.025C140.922 140.025 139.49 141.278 139.49 143.212H141.245C141.245 142.173 141.901 141.521 142.915 141.521C143.885 141.521 144.605 142.113 144.605 143.072C144.605 143.923 144.088 144.529 143.084 145.548L139.549 149.013V150.346Z" fill="#6A35FF"/>
<defs>
<filter id="filter0_d" x="0" y="0" width="378.72" height="406.928" filterUnits="userSpaceOnUse" color-interpolation-filters="sRGB">
<feFlood flood-opacity="0" result="BackgroundImageFix"/>
<feColorMatrix in="SourceAlpha" type="matrix" values="0 0 0 0 0 0 0 0 0 0 0 0 0 0 0 0 0 0 127 0"/>
<feMorphology radius="25" operator="erode" in="SourceAlpha" result="effect1_dropShadow"/>
<feOffset dx="-8" dy="30"/>
<feGaussianBlur stdDeviation="40"/>
<feColorMatrix type="matrix" values="0 0 0 0 0.320833 0 0 0 0 0.320833 0 0 0 0 0.320833 0 0 0 0.1 0"/>
<feBlend mode="normal" in2="BackgroundImageFix" result="effect1_dropShadow"/>
<feBlend mode="normal" in="SourceGraphic" in2="effect1_dropShadow" result="shape"/>
</filter>
<filter id="filter1_d" x="63.043" y="118.924" width="134.232" height="94.1467" filterUnits="userSpaceOnUse" color-interpolation-filters="sRGB">
<feFlood flood-opacity="0" result="BackgroundImageFix"/>
<feColorMatrix in="SourceAlpha" type="matrix" values="0 0 0 0 0 0 0 0 0 0 0 0 0 0 0 0 0 0 127 0"/>
<feOffset dx="10" dy="20"/>
<feGaussianBlur stdDeviation="15"/>
<feColorMatrix type="matrix" values="0 0 0 0 0 0 0 0 0 0 0 0 0 0 0 0 0 0 0.04 0"/>
<feBlend mode="normal" in2="BackgroundImageFix" result="effect1_dropShadow"/>
<feBlend mode="normal" in="SourceGraphic" in2="effect1_dropShadow" result="shape"/>
</filter>
</defs>
</svg>
